<svg width="16" height="16" viewBox="0 0 16 16" fill="none" xmlns="http://www.w3.org/2000/svg">
<g clip-path="url(#clip0_767_448)">
<path fill-rule="evenodd" clip-rule="evenodd" d="M3.9418 15.9844H2.45898C1.48945 15.9844 0.748047 15.243 0.748047 14.2734V1.72656C0.748047 0.757031 1.48945 0.015625 2.45898 0.015625H3.82773C4.79727 0.015625 5.53867 0.757031 5.53867 1.72656V14.2734C5.53867 15.243 4.79727 15.9844 3.9418 15.9844Z" fill="white"/>
<path fill-rule="evenodd" clip-rule="evenodd" d="M13.523 15.9844H12.0402C11.0706 15.9844 10.3292 15.243 10.3292 14.2734V1.72656C10.3292 0.757031 11.0706 0.015625 12.0402 0.015625H13.4089C14.3784 0.015625 15.1198 0.757031 15.1198 1.72656V14.2734C15.1198 15.243 14.3784 15.9844 13.523 15.9844Z" fill="white"/>
</g>
<defs>
<clipPath id="clip0_767_448">
<rect width="14.3719" height="15.9688" fill="white" transform="translate(0.748047 0.015625)"/>
</clipPath>
</defs>
</svg>
